<svg version="1.1" id="Calque_1" xmlns="http://www.w3.org/2000/svg" xmlns:xlink="http://www.w3.org/1999/xlink" x="0px" y="0px"
	 viewBox="0 0 500 500" style="enable-background:new 0 0 500 500;" xml:space="preserve">
<g style="display:none;">
	<path style="display:inline;fill:#FFFF00;" d="M340.312,447.944H159.243c-60.206,0-109.466-49.259-109.466-109.466V157.41
		c0-60.206,49.259-109.466,109.466-109.466h181.069c60.206,0,109.466,49.259,109.466,109.466v181.069
		C449.778,398.685,400.518,447.944,340.312,447.944z"/>
</g>
<path style="display:none;fill-rule:evenodd;clip-rule:evenodd;fill:none;stroke:#000000;stroke-width:25;stroke-miterlimit:10;" d="
	M190.321,430.48c0-5.902-0.215-21.538-0.336-42.287c-69.162,15.025-83.755-33.329-83.755-33.329
	c-11.306-28.723-27.606-36.37-27.606-36.37c-22.575-15.427,1.708-15.114,1.708-15.114c24.951,1.758,38.084,25.623,38.084,25.623
	c22.179,37.995,58.192,27.024,72.359,20.659c2.259-16.068,8.682-27.024,15.785-33.239c-55.211-6.275-113.253-27.605-113.253-122.883
	c0-27.143,9.688-49.338,25.592-66.718c-2.557-6.29-11.089-31.569,2.438-65.801c0,0,20.876-6.685,68.373,25.488
	c19.832-5.515,41.101-8.273,62.246-8.369c21.114,0.096,42.385,2.854,62.246,8.369c47.468-32.174,68.305-25.488,68.305-25.488
	c13.565,34.231,5.031,59.511,2.474,65.801c15.935,17.38,25.557,39.575,25.557,66.718c0,95.516-58.132,116.533-113.522,122.689
	c8.928,7.676,16.88,22.851,16.88,46.044c0,33.239-0.305,60.056-0.305,68.208C313.592,437.129,190.321,437.069,190.321,430.48z"/>
<path style="display:none;" d="M49.778,174.972v137.5h112.5v25h87.5v-25h200v-137.5H49.778z M71.995,197.189h88.892h0.024v95.85
	h-22.241V219.43h-22.217v73.608H71.995V197.189z M183.127,197.189h88.867h0.024v95.825h-44.458v22.241h-44.434V197.189z
	 M294.236,197.189h133.325h0.024v95.85h-22.241V219.43h-22.217v73.608h-22.217V219.43h-22.241v73.608h-44.434V197.189z
	 M227.561,219.43v51.392h22.217V219.43H227.561z"/>
<g>
	<path style="fill:#FFFFFF;" d="M342.937,170.744h-46.154c-8.474,0-15.385-6.911-15.385-15.385v-47.115
		c0-13.642,0.06-26.983-11.058-29.808H158.322c-17.007,0-30.769,13.762-30.769,30.769v276.923c0,17.007,13.762,30.769,30.769,30.769
		h184.615c17.007,0,30.769-13.762,30.769-30.769v-200C373.707,170.804,358.262,170.744,342.937,170.744z M341.074,347.727
		c-2.825,4.808-7.993,7.692-13.522,7.632H173.707c-8.474,0.781-16.046-5.469-16.827-13.942c-0.781-8.474,5.469-16.046,13.942-16.827
		c0.481,0,0.961,0,1.442,0s0.962,0,1.442,0h153.846c5.529-0.06,10.697,2.825,13.522,7.632
		C343.839,337.03,343.839,342.919,341.074,347.727z M170.822,263.051c0.481,0,0.961,0,1.442,0s0.962,0,1.442,0h123.077
		c5.529-0.06,10.697,2.825,13.522,7.632c2.764,4.808,2.764,10.697,0,15.505c-2.825,4.808-7.993,7.692-13.522,7.632H173.707
		c-8.474,0.781-16.046-5.469-16.827-13.942S162.348,263.833,170.822,263.051z M341.074,224.65
		c-2.825,4.808-7.993,7.692-13.522,7.632H173.707c-8.474,0.781-16.046-5.469-16.827-13.942s5.469-16.046,13.942-16.827
		c0.481,0,0.961,0,1.442,0s0.962,0,1.442,0h153.846c5.529-0.06,10.697,2.825,13.522,7.632
		C343.839,213.953,343.839,219.842,341.074,224.65z"/>
	<path style="fill:#FFFFFF;" d="M378.812,9.444H120.743c-60.206,0-109.466,49.259-109.466,109.466v258.069
		c0,60.206,49.26,109.466,109.466,109.466h258.069c60.206,0,109.466-49.259,109.466-109.466V118.91
		C488.278,58.704,439.018,9.444,378.812,9.444z M404.476,386.128c0,33.894-27.644,61.538-61.538,61.538H158.322
		c-33.894,0-61.539-27.644-61.539-61.538V109.205c0-33.894,27.644-61.539,61.539-61.539h123.077
		c16.346,0,31.851,15.445,58.173,42.308c3.666,3.726,7.752,7.272,11.538,11.058s7.813,7.873,11.538,11.538
		c26.863,26.322,41.827,41.827,41.827,58.173V386.128z"/>
</g>
<path style="display:none;" d="M391.686,106.166c-78.139-78.141-204.627-78.153-282.779,0c-78.142,78.141-78.153,204.627,0,282.779
	c78.139,78.141,204.627,78.153,282.779,0C469.828,310.805,469.839,184.319,391.686,106.166z M383.329,360.442
	c-9.342-8.354-19.336-15.747-29.869-22.119c6.962-24.05,11.087-50.515,12.062-78.025h58.787
	C421.651,297.38,407.403,332.165,383.329,360.442L383.329,360.442z M76.284,260.298h58.787c0.975,27.51,5.1,53.975,12.062,78.025
	c-10.534,6.371-20.527,13.765-29.869,22.119C93.19,332.165,78.943,297.38,76.284,260.298z M117.265,134.67
	c9.342,8.354,19.336,15.747,29.869,22.119c-6.962,24.05-11.087,50.515-12.062,78.025H76.284
	C78.943,197.733,93.19,162.948,117.265,134.67z M237.555,159.422c-20.781-1.486-40.819-6.605-59.395-15.049
	c10.804-27.82,30.72-61.188,59.395-69.457V159.422z M237.555,184.954v49.86h-76.988c0.882-23.272,4.179-45.618,9.663-66.065
	C191.34,177.978,214.044,183.489,237.555,184.954z M237.555,260.298v49.86c-23.511,1.465-46.215,6.976-67.325,16.205
	c-5.484-20.447-8.781-42.793-9.663-66.065H237.555z M237.555,335.691v84.505c-28.673-8.269-48.59-41.632-59.395-69.456
	C196.736,342.296,216.773,337.177,237.555,335.691z M263.039,335.691c20.781,1.486,40.819,6.605,59.395,15.049
	c-10.804,27.821-30.72,61.187-59.395,69.456V335.691z M263.039,310.158v-49.86h76.988c-0.882,23.272-4.179,45.618-9.663,66.065
	C309.253,317.135,286.55,311.624,263.039,310.158L263.039,310.158z M263.039,234.814v-49.86
	c23.511-1.465,46.215-6.976,67.325-16.205c5.484,20.447,8.781,42.793,9.663,66.065H263.039z M263.039,159.422V74.918
	c28.675,8.269,48.592,41.636,59.395,69.457C303.858,152.817,283.82,157.936,263.039,159.422z M320.273,87.639
	c16.311,7.143,31.528,16.828,45.169,28.844c-6.493,5.725-13.345,10.916-20.499,15.558
	C338.59,116.311,330.474,101.024,320.273,87.639z M155.649,132.042c-7.154-4.642-14.005-9.833-20.499-15.558
	c13.641-12.017,28.858-21.702,45.169-28.844C170.118,101.025,162.002,116.313,155.649,132.042L155.649,132.042z M155.65,363.071
	c6.353,15.73,14.47,31.018,24.671,44.403c-16.311-7.143-31.528-16.828-45.169-28.844
	C141.644,372.904,148.495,367.713,155.65,363.071z M344.944,363.071c7.154,4.642,14.006,9.833,20.499,15.558
	c-13.641,12.017-28.858,21.702-45.169,28.844C330.474,394.09,338.59,378.802,344.944,363.071L344.944,363.071z M365.522,234.814
	c-0.975-27.51-5.1-53.976-12.062-78.025c10.534-6.371,20.526-13.765,29.869-22.119c24.074,28.278,38.321,63.063,40.98,100.144
	H365.522z"/>
</svg>
